<?xml version="1.0" encoding="UTF-8"?>
<svg width="400" height="400" viewBox="0 0 400 400" fill="none" xmlns="http://www.w3.org/2000/svg">
  <!-- Background circles -->
  <circle cx="200" cy="200" r="180" fill="url(#gradient1)" opacity="0.1"/>
  <circle cx="200" cy="200" r="150" stroke="url(#gradient2)" stroke-width="2" opacity="0.3"/>
  
  <!-- Decorative lines -->
  <path d="M50,200 Q200,50 350,200" stroke="url(#gradient3)" stroke-width="2" opacity="0.5"/>
  <path d="M50,220 Q200,70 350,220" stroke="url(#gradient3)" stroke-width="2" opacity="0.3"/>
  
  <!-- Lock body -->
  <rect x="150" y="160" width="100" height="120" rx="10" fill="url(#gradient4)"/>
  
  <!-- Lock shackle -->
  <path d="M170,160 V130 Q200,80 230,130 V160" stroke="url(#gradient2)" stroke-width="12" stroke-linecap="round"/>
  
  <!-- Keyhole -->
  <circle cx="200" cy="210" r="15" fill="#0A0A0A"/>
  <rect x="195" y="210" width="10" height="25" fill="#0A0A0A"/>
  
  <!-- Particles -->
  <circle cx="100" cy="100" r="3" fill="#00FFD1"/>
  <circle cx="300" cy="100" r="3" fill="#00FFD1"/>
  <circle cx="100" cy="300" r="3" fill="#00FFD1"/>
  <circle cx="300" cy="300" r="3" fill="#00FFD1"/>
  
  <!-- Gradients -->
  <defs>
    <linearGradient id="gradient1" x1="0" y1="0" x2="400" y2="400">
      <stop offset="0%" stop-color="#00FFD1"/>
      <stop offset="100%" stop-color="#D4AF37"/>
    </linearGradient>
    
    <linearGradient id="gradient2" x1="0" y1="0" x2="400" y2="400">
      <stop offset="0%" stop-color="#00FFD1"/>
      <stop offset="100%" stop-color="#D4AF37"/>
    </linearGradient>
    
    <linearGradient id="gradient3" x1="50" y1="200" x2="350" y2="200">
      <stop offset="0%" stop-color="#00FFD1"/>
      <stop offset="100%" stop-color="#D4AF37"/>
    </linearGradient>
    
    <linearGradient id="gradient4" x1="150" y1="160" x2="250" y2="280">
      <stop offset="0%" stop-color="#00FFD1"/>
      <stop offset="100%" stop-color="#D4AF37"/>
    </linearGradient>
  </defs>
  
  <!-- Animation -->
  <style>
    @keyframes float {
      0%, 100% { transform: translateY(0); }
      50% { transform: translateY(-10px); }
    }
    rect, path, circle {
      animation: float 6s ease-in-out infinite;
    }
  </style>
</svg> 