<?xml version="1.0" encoding="UTF-8"?>
<svg width="400" height="400" viewBox="0 0 400 400" fill="none" xmlns="http://www.w3.org/2000/svg">
  <!-- Background elements -->
  <circle cx="200" cy="200" r="180" fill="url(#gradient1)" opacity="0.1"/>
  <circle cx="200" cy="200" r="150" stroke="url(#gradient2)" stroke-width="2" opacity="0.3"/>
  
  <!-- Decorative grid -->
  <path d="M50,150 H350" stroke="url(#gradient3)" stroke-width="1" opacity="0.2"/>
  <path d="M50,200 H350" stroke="url(#gradient3)" stroke-width="1" opacity="0.2"/>
  <path d="M50,250 H350" stroke="url(#gradient3)" stroke-width="1" opacity="0.2"/>
  <path d="M150,50 V350" stroke="url(#gradient3)" stroke-width="1" opacity="0.2"/>
  <path d="M200,50 V350" stroke="url(#gradient3)" stroke-width="1" opacity="0.2"/>
  <path d="M250,50 V350" stroke="url(#gradient3)" stroke-width="1" opacity="0.2"/>
  
  <!-- User profile circle -->
  <circle cx="200" cy="150" r="40" fill="url(#gradient4)"/>
  
  <!-- User icon -->
  <path d="M200,130 Q215,130 215,145 Q215,160 200,160 Q185,160 185,145 Q185,130 200,130" 
        fill="#0A0A0A"/>
  <path d="M170,190 Q200,160 230,190 Q230,220 200,220 Q170,220 170,190" 
        fill="#0A0A0A"/>
  
  <!-- Form lines -->
  <rect x="130" y="240" width="140" height="10" rx="5" fill="url(#gradient4)" opacity="0.7"/>
  <rect x="130" y="270" width="140" height="10" rx="5" fill="url(#gradient4)" opacity="0.7"/>
  <rect x="130" y="300" width="140" height="10" rx="5" fill="url(#gradient4)" opacity="0.7"/>
  
  <!-- Particles -->
  <circle cx="100" cy="100" r="3" fill="#D4AF37"/>
  <circle cx="300" cy="100" r="3" fill="#D4AF37"/>
  <circle cx="100" cy="300" r="3" fill="#D4AF37"/>
  <circle cx="300" cy="300" r="3" fill="#D4AF37"/>
  
  <!-- Gradients -->
  <defs>
    <linearGradient id="gradient1" x1="0" y1="0" x2="400" y2="400">
      <stop offset="0%" stop-color="#D4AF37"/>
      <stop offset="100%" stop-color="#00FFD1"/>
    </linearGradient>
    
    <linearGradient id="gradient2" x1="0" y1="0" x2="400" y2="400">
      <stop offset="0%" stop-color="#D4AF37"/>
      <stop offset="100%" stop-color="#00FFD1"/>
    </linearGradient>
    
    <linearGradient id="gradient3" x1="50" y1="200" x2="350" y2="200">
      <stop offset="0%" stop-color="#D4AF37"/>
      <stop offset="100%" stop-color="#00FFD1"/>
    </linearGradient>
    
    <linearGradient id="gradient4" x1="0" y1="0" x2="400" y2="400">
      <stop offset="0%" stop-color="#D4AF37"/>
      <stop offset="100%" stop-color="#00FFD1"/>
    </linearGradient>
  </defs>
  
  <!-- Animation -->
  <style>
    @keyframes float {
      0%, 100% { transform: translateY(0); }
      50% { transform: translateY(-10px); }
    }
    rect, path, circle {
      animation: float 6s ease-in-out infinite;
    }
  </style>
</svg> 